<?xml version="1.0" standalone="no"?><!DOCTYPE svg PUBLIC "-//W3C//DTD SVG 1.1//EN" "http://www.w3.org/Graphics/SVG/1.1/DTD/svg11.dtd"><svg t="1490193952271" class="icon" style="" viewBox="0 0 1129 1024" version="1.1" xmlns="http://www.w3.org/2000/svg" p-id="1090" xmlns:xlink="http://www.w3.org/1999/xlink" width="220.5078125" height="200"><defs><style type="text/css"></style></defs><path d="M379.775809 875.627139c-40.312031 0-72.961178 32.641059-72.961178 72.977353 0 40.328206 32.649146 72.977353 72.961178 72.977353 40.33225 0 72.969265-32.657234 72.969265-72.977353C452.732943 908.276285 420.087841 875.627139 379.775809 875.627139L379.775809 875.627139 379.775809 875.627139zM890.572797 875.627139c-40.352469 0-72.969265 32.641059-72.969265 72.977353 0 40.328206 32.608709 72.977353 72.969265 72.977353 40.352469 0 72.993528-32.657234 72.993528-72.977353C963.558237 908.276285 930.901003 875.627139 890.572797 875.627139L890.572797 875.627139 890.572797 875.627139zM962.959764 839.140484 370.329636 839.140484c-52.584778 0-98.820887-41.581765-105.222125-94.672011L203.226177 308.836501l-35.216921-203.61842c-2.187663-17.776275-18.390924-32.264991-34.226205-32.264991L87.308363 72.95309c-20.133775 0-36.478567-16.348836-36.478567-36.478567s16.340748-36.478567 36.478567-36.478567l46.474689 0c53.223689 0 99.98144 41.581765 106.415028 94.688186l35.132002 202.801584L337.474259 734.973775c2.038044 16.935178 17.35977 31.205532 32.823027 31.205532l592.646303 0c20.170169 0 36.478567 16.300311 36.478567 36.478567C999.454506 822.83613 983.13802 839.140484 962.959764 839.140484L962.959764 839.140484zM415.943009 693.201954c-18.957047 0-34.962165-14.573634-36.332992-33.817787-1.484052-20.101425 13.603137-37.578464 33.664125-39.00186l494.937444-36.478567c18.156387-0.084919 33.4862-14.383579 35.483807-30.582796l57.457483-328.81257c1.435527-12.216135-1.936951-25.693916-9.256118-33.95123-4.714999-5.309429-10.622902-8.006603-17.517476-8.006603L342.634069 182.550541c-20.133775 0-36.478567-16.348836-36.478567-36.478567 0-20.129731 16.340748-36.478567 36.478567-36.478567L974.379282 109.593407c27.885622 0 53.498663 11.548918 72.132211 32.604665 21.314547 24.011721 31.092307 57.878032 26.830206 93.090909l-57.514096 328.84492c-6.190964 51.133076-52.394723 92.755279-104.971413 92.755279l-492.264533 36.312774C417.71821 693.161517 416.816456 693.201954 415.943009 693.201954L415.943009 693.201954z" p-id="1091"></path></svg>