<?xml version="1.0" standalone="no"?><!DOCTYPE svg PUBLIC "-//W3C//DTD SVG 1.1//EN" "http://www.w3.org/Graphics/SVG/1.1/DTD/svg11.dtd"><svg t="1490193987806" class="icon" style="" viewBox="0 0 1024 1024" version="1.1" xmlns="http://www.w3.org/2000/svg" p-id="1430" xmlns:xlink="http://www.w3.org/1999/xlink" width="200" height="200"><defs><style type="text/css"></style></defs><path d="M878.90944 757.004288 318.756864 757.004288c-15.724544 0-30.70976-14.1824-32.724992-30.988288l-58.718208-413.4912L194.10944 120.870912C188.069888 71.432192 144.62976 32.768 95.174656 32.768L51.238912 32.768C33.148928 32.768 18.432 47.484928 18.432 65.57696c0 18.089984 14.716928 32.806912 32.806912 32.806912l43.935744 0c16.304128 0 31.883264 14.649344 34.031616 31.977472l33.26976 192.344064 58.484736 411.844608c5.984256 49.373184 48.928768 88.037376 97.794048 88.037376l560.152576 0c18.092032 0 32.802816-14.716928 32.802816-32.80896C911.7184 771.721216 897.001472 757.004288 878.90944 757.004288L878.90944 757.004288zM956.659712 201.326592c-17.260544-19.544064-41.039872-30.291968-66.902016-30.291968L192.292864 171.034624c-18.092032 0-32.80896 14.716928-32.80896 32.806912 0 18.085888 14.716928 32.802816 32.80896 32.802816l697.464832 0c7.041024 0 13.029376 2.750464 17.788928 8.138752 7.07584 8.003584 10.682368 21.13536 9.19552 33.470464l-54.337536 276.09088c-2.015232 16.566272-17.82784 30.224384-35.221504 30.324736l-557.826048 54.974464c-8.732672 0.628736-16.67072 4.59776-22.388736 11.24352-5.738496 6.610944-8.531968 15.079424-7.892992 23.812096 1.241088 17.065984 15.59552 30.425088 32.679936 30.425088 0.774144 0 1.603584-0.032768 2.410496-0.100352l555.399168-54.874112c48.949248 0 91.809792-37.86752 97.693696-86.181888l54.370304-276.09088C985.565184 255.268864 976.470016 223.684608 956.659712 201.326592L956.659712 201.326592zM327.684096 995.024896c37.095424 0 67.284992-30.195712 67.284992-67.268608 0-37.10976-30.195712-67.301376-67.284992-67.301376-37.087232 0-67.284992 30.191616-67.284992 67.301376C260.399104 964.829184 290.596864 995.024896 327.684096 995.024896L327.684096 995.024896zM810.51648 995.024896c37.072896 0 67.268608-30.195712 67.268608-67.268608 0-37.10976-30.195712-67.301376-67.268608-67.301376-37.105664 0-67.301376 30.191616-67.301376 67.301376C743.215104 964.829184 773.410816 995.024896 810.51648 995.024896L810.51648 995.024896z" fill="#1296db" p-id="1431"></path><path d="M193.536 230.4 263.168 669.696 867.328 599.04 892.928 545.792 928.768 240.64 854.016 208.896Z" fill="#1296db" p-id="1432"></path></svg>