<?xml version="1.0" standalone="no"?><!DOCTYPE svg PUBLIC "-//W3C//DTD SVG 1.1//EN" "http://www.w3.org/Graphics/SVG/1.1/DTD/svg11.dtd"><svg t="1490194014156" class="icon" style="" viewBox="0 0 1024 1024" version="1.1" xmlns="http://www.w3.org/2000/svg" p-id="1657" xmlns:xlink="http://www.w3.org/1999/xlink" width="200" height="200"><defs><style type="text/css"></style></defs><path d="M11.374842 518.120906l-11.292553 27.839044c1.15996 263.583888 218.686606 478.040051 484.897463 478.040051 266.17674 0 483.737503-214.456163 484.897463-478.040051l-3.445764-27.839044L11.374842 518.120906zM485.013868 960.748056c-220.358314 0-392.578281-165.294323-409.977683-379.306972l827.802155 0C885.404822 795.48785 705.338065 960.748056 485.013868 960.748056zM770.398184 450.979683c40.871537 0 54.552244-41.383284 41.349168-69.49526l114.801939-339.868326c5.560985-16.580607-3.47988-34.45764-20.196953-39.984509-16.921772-5.526869-34.832921 3.445764-40.393907 19.992254l-114.221959 338.060153C709.534392 376.674 715.675357 450.979683 770.398184 450.979683zM614.724707 348.289092c61.784937 0 61.784937-94.877918 0-94.877918S552.93977 348.289092 614.724707 348.289092zM614.724707 490.554794c61.784937 0 61.784937-94.843801 0-94.843801S552.93977 490.554794 614.724707 490.554794zM403.168444 486.597283c61.784937 0 61.784937-94.843801 0-94.843801C341.383507 391.753482 341.383507 486.597283 403.168444 486.597283zM498.967506 387.761854c61.784937 0 61.784937-94.843801 0-94.843801C437.18257 292.918053 437.18257 387.761854 498.967506 387.761854zM231.494341 490.554794c61.784937 0 61.784937-94.843801 0-94.843801C169.74352 395.710993 169.74352 490.554794 231.494341 490.554794zM1001.878468 64.951765c-16.887655-5.526869-34.798805 3.445764-40.393907 19.992254L843.953304 433.068533c-5.595102 16.614723 3.47988 34.491756 20.162837 39.984509 3.377531 1.125844 6.755062 1.637591 10.098477 1.637591 13.407775 0 25.860288-8.426769 30.29543-21.629845l117.565374-348.15863C1027.636407 88.355667 1018.595541 70.478634 1001.878468 64.951765z" p-id="1658"></path></svg>