<?xml version="1.0" standalone="no"?><!DOCTYPE svg PUBLIC "-//W3C//DTD SVG 1.1//EN" "http://www.w3.org/Graphics/SVG/1.1/DTD/svg11.dtd"><svg t="1490193908746" class="icon" style="" viewBox="0 0 1024 1024" version="1.1" xmlns="http://www.w3.org/2000/svg" p-id="862" xmlns:xlink="http://www.w3.org/1999/xlink" width="200" height="200"><defs><style type="text/css"></style></defs><path d="M949.028571 519.314286L508.342857 107.885714 67.657143 517.485714c-9.142857 7.314286-9.142857 21.942857-1.828572 29.257143 7.314286 9.142857 861.257143 7.314286 866.742858 7.314286 5.485714 0 10.971429-1.828571 16.457142-7.314286 9.142857-5.485714 9.142857-20.114286 0-27.428571z m-133.485714 9.142857c-10.971429 0-21.942857 9.142857-21.942857 21.942857H224.914286c0-10.971429-9.142857-21.942857-21.942857-21.942857-10.971429 0-21.942857 9.142857-21.942858 21.942857v369.371429h256V691.2h142.628572v226.742857h256V548.571429c0-10.971429-9.142857-20.114286-20.114286-20.114286z m0-171.885714c10.971429 0 21.942857-9.142857 21.942857-21.942858V179.2h-170.057143c-10.971429 0-21.942857 9.142857-21.942857 21.942857-1.828571 10.971429 157.257143 155.428571 170.057143 155.428572z" fill="#1296db" p-id="863"></path></svg>